<!-- by TradingView --><svg width="18" height="18" xmlns="http://www.w3.org/2000/svg"><path fill="#6B4732" d="M0 0h18v18H0z"/><path d="M5.708 9.812c.045-1.894.542-3.092 1.066-3.822.264-.368.693-.087.601.357A13.835 13.835 0 007.6 13.03c.137.487-.365.818-.661.406-.824-1.143-1.287-2.523-1.231-3.624zm2.716-4.56c-.932 2.868-.299 6.564.205 8.641a.27.27 0 00.534-.016c.679-3.55.478-5.971.247-6.83-.035-.128.038-.513.347-.607.309-.094.521.21.541.342a17.74 17.74 0 01-.25 6.443c-.075.318.318.538.498.265.982-1.488 1.516-3.362 1.452-4.678-.098-1.97-.885-3.11-1.422-3.589-.43-.383-1.098-.493-1.389-.44.029-.654-.097-1.113-.36-1.418-.287-.332-.805-.553-.955-.114-.094.276.42.375.525.594.212.357.106 1.087.027 1.407z" fill="#fff"/></svg>